Coordinates
version=1
nRows=13
nColumns=40
inDegrees=yes

Units are S.I. units (second, meters, Newtons, ...)
Angles are in degrees.

endheader
time	pelvis_tilt	pelvis_list	pelvis_rotation	pelvis_tx	pelvis_ty	pelvis_tz	hip_flexion_r	hip_adduction_r	hip_rotation_r	knee_angle_r	knee_angle_r_beta	ankle_angle_r	subtalar_angle_r	mtp_angle_r	hip_flexion_l	hip_adduction_l	hip_rotation_l	knee_angle_l	knee_angle_l_beta	ankle_angle_l	subtalar_angle_l	mtp_angle_l	lumbar_extension	lumbar_bending	lumbar_rotation	arm_flex_r	arm_add_r	arm_rot_r	elbow_flex_r	pro_sup_r	wrist_flex_r	wrist_dev_r	arm_flex_l	arm_add_l	arm_rot_l	elbow_flex_l	pro_sup_l	wrist_flex_l	wrist_dev_l
      3.52500000	     -2.62591593	     -4.98349406	     -3.36652380	      1.08382081	      0.93979181	      0.43780133	     31.43412914	     -3.99344592	     -4.23811114	     60.76458565	     60.76458565	     -1.41747395	    -13.07158093	     -1.59992057	      8.24284927	     -5.49260233	    -10.09995440	     16.97006030	     16.97006030	     12.26116784	    -13.36108328	      1.09929926	    -13.01198433	      4.85829791	      0.18940860	     -5.59091541	    -17.09163835	    -26.36545680	     24.26120247	     47.66145817	      0.00000000	      0.00000000	      7.98145613	    -15.98727616	     -4.08485297	     81.76052577	     47.38804267	      0.00000000	      0.00000000
      3.53885714	     -2.84676224	     -5.13963687	     -3.94853358	      1.08261231	      0.93998919	      0.43805647	     31.76847462	     -3.56140984	     -4.61461359	     57.71908203	     57.71908203	     -0.51100491	    -12.70900994	     -1.65835164	      7.84363965	     -5.62799789	    -10.47550746	     16.54469546	     16.54469546	     12.33430161	    -13.48504877	      1.15318707	    -12.99762118	      4.99978654	      0.11498958	     -5.66794758	    -16.69451795	    -26.38739628	     24.38543310	     47.64948541	      0.00000000	      0.00000000	      8.64046157	    -16.26660102	     -4.31091852	     82.27772067	     47.42143088	      0.00000000	      0.00000000
      3.55271429	     -2.94676366	     -5.29915401	     -4.52161081	      1.08145755	      0.94023681	      0.43847075	     31.73054894	     -3.07188887	     -4.94311353	     54.09771202	     54.09771202	      0.32324551	    -11.97416779	     -1.91942628	      7.27342100	     -5.76131366	    -10.87048066	     16.05767261	     16.05767261	     12.41814487	    -13.56494973	      1.15446631	    -13.16285099	      5.12182246	      0.13824812	     -5.70854736	    -16.28977452	    -26.44873894	     24.66300222	     47.63068263	      0.00000000	      0.00000000	      9.25890079	    -16.45000668	     -4.58652105	     82.94475444	     47.46405791	      0.00000000	      0.00000000
      3.56657143	     -3.16791223	     -5.47945956	     -5.04849189	      1.08018430	      0.94013957	      0.43903328	     31.61416237	     -2.53451752	     -5.31611379	     50.00756139	     50.00756139	      1.02255592	    -10.88798904	     -2.11321705	      6.94219307	     -5.95262816	    -11.25096438	     15.74947237	     15.74947237	     12.51193079	    -13.69283634	      1.09535756	    -13.17603578	      5.28541470	      0.10666869	     -5.63626742	    -15.81866491	    -26.46860484	     24.91831127	     47.61171742	      0.00000000	      0.00000000	      9.88606686	    -16.66214597	     -4.81462756	     83.43468275	     47.49863034	      0.00000000	      0.00000000
      3.58042857	     -3.43226960	     -5.64414001	     -5.53880678	      1.07890998	      0.93977786	      0.43974156	     31.34166454	     -1.96017342	     -5.63687772	     45.53656365	     45.53656365	      1.62451168	     -9.49229694	     -2.19228130	      6.70541915	     -6.15220784	    -11.58551456	     15.52901611	     15.52901611	     12.65137559	    -13.80160471	      0.97505584	    -13.13871850	      5.43311807	      0.09023772	     -5.45584321	    -15.29557214	    -26.45057078	     25.16392274	     47.59200434	      0.00000000	      0.00000000	     10.51512187	    -16.87474891	     -5.00264853	     83.81442693	     47.52722718	      0.00000000	      0.00000000
      3.59428571	     -3.64467218	     -5.78676698	     -5.97016591	      1.07776685	      0.93934316	      0.44048024	     30.79134456	     -1.40930263	     -6.00345462	     40.74482029	     40.74482029	      2.03865386	     -7.77336767	     -2.17796519	      6.44436240	     -6.33800989	    -11.93265330	     15.37521289	     15.37521289	     12.81225224	    -13.86177326	      0.77703898	    -13.13701059	      5.57943272	      0.06541251	     -5.21781765	    -14.79260666	    -26.41293586	     25.44150233	     47.56945935	      0.00000000	      0.00000000	     11.10858406	    -17.05003155	     -5.15860831	     84.09609890	     47.55211003	      0.00000000	      0.00000000
      3.60814286	     -3.81113113	     -5.92671836	     -6.33842224	      1.07674122	      0.93886860	      0.44126041	     29.96209542	     -0.87327392	     -6.48381482	     35.69763806	     35.69763806	      2.21742006	     -5.65623163	     -2.07351159	      6.14922514	     -6.52485634	    -12.27205360	     15.25482112	     15.25482112	     13.00577614	    -13.80286930	      0.45749690	    -13.21723279	      5.74535673	      0.03863206	     -4.92486042	    -14.29671554	    -26.33857152	     25.78430993	     47.53956878	      0.00000000	      0.00000000	     11.66912148	    -17.19790941	     -5.29001219	     84.22283772	     47.57423620	      0.00000000	      0.00000000
      3.62200000	     -4.10010223	     -5.98655855	     -6.67121667	      1.07589452	      0.93798919	      0.44222696	     29.17809265	     -0.32595030	     -6.84310979	     30.74203922	     30.74203922	      2.23523631	     -3.66809113	     -1.54304915	      5.99871783	     -6.64962782	    -12.58824428	     15.15164536	     15.15164536	     13.19439218	    -13.80079755	      0.16677906	    -13.05677993	      5.82342526	     -0.00923014	     -4.57911038	    -13.68676388	    -26.21176391	     26.07233692	     47.51000776	      0.00000000	      0.00000000	     12.22886415	    -17.35341022	     -5.34631881	     84.25100917	     47.58757088	      0.00000000	      0.00000000
      3.63585714	     -4.16330621	     -5.96086389	     -6.91765675	      1.07543657	      0.93728642	      0.44305764	     28.05142599	     -0.01773847	     -7.64192604	     25.99417105	     25.99417105	      2.06605091	     -0.89849228	     -0.91989474	      5.56885213	     -6.67874968	    -13.10817826	     15.01477403	     15.01477403	     13.38521198	    -13.37079143	     -0.60092401	    -13.08754753	      5.82046516	      0.00976270	     -4.40772338	    -13.23339191	    -25.80091808	     26.68261320	     47.42591069	      0.00000000	      0.00000000	     12.93532666	    -17.36202851	     -5.34793432	     83.67142514	     47.60301057	      0.00000000	      0.00000000
      3.64971429	     -4.28237461	     -5.98626114	     -7.09566198	      1.07520759	      0.93640206	      0.44406263	     26.95349407	      0.49694465	     -8.09273323	     21.62774508	     21.62774508	      1.72291858	      0.98078298	      0.28483044	      5.26098700	     -6.74843623	    -13.28112983	     14.99952564	     14.99952564	     13.60979659	    -13.40681058	     -0.92140606	    -13.01281873	      5.92785286	     -0.05867179	     -4.01082335	    -12.75481326	    -25.53526864	     27.04420785	     47.38129809	      0.00000000	      0.00000000	     13.37897199	    -17.48782322	     -5.24676253	     83.36453052	     47.60148799	      0.00000000	      0.00000000
      3.66357143	     -4.46537978	     -5.83614214	     -7.26546290	      1.07509242	      0.93525355	      0.44525024	     26.14071839	      0.81571383	     -8.59240523	     18.11756199	     18.11756199	      1.24863707	      2.71582393	      1.47578941	      5.01003084	     -6.64600571	    -13.51407376	     14.92993386	     14.92993386	     13.86529807	    -13.32522288	     -1.22776669	    -12.80070267	      5.73964679	     -0.15839962	     -3.61934853	    -12.21025577	    -25.26121254	     27.37659742	     47.33969201	      0.00000000	      0.00000000	     13.78991062	    -17.59793708	     -5.16682037	     82.91736025	     47.59613302	      0.00000000	      0.00000000
      3.67742857	     -4.42794336	     -5.79761902	     -7.32305603	      1.07545692	      0.93443397	      0.44632330	     25.12152830	      1.13386240	     -9.37183301	     15.31916096	     15.31916096	      0.89101244	      4.57313973	      2.77294204	      4.48311586	     -6.64046466	    -13.75489824	     14.85643058	     14.85643058	     14.15615502	    -13.05561489	     -1.57995983	    -12.81279386	      5.80115229	     -0.27207799	     -3.19852923	    -11.87446360	    -24.82487520	     27.86556917	     47.27733387	      0.00000000	      0.00000000	     14.19989995	    -17.60942578	     -5.03170617	     81.93857195	     47.57784413	      0.00000000	      0.00000000
      3.69128571	     -4.50051264	     -5.64117353	     -7.35576427	      1.07591853	      0.93338452	      0.44755344	     24.46100450	      1.32239583	     -9.99921482	     13.47819739	     13.47819739	      0.50749634	      5.88977334	      3.72141782	      4.11021021	     -6.52502289	    -13.92697517	     14.81581550	     14.81581550	     14.46461552	    -12.84927696	     -1.85019262	    -12.62405340	      5.68939416	     -0.38450817	     -2.80954607	    -11.49685500	    -24.38745754	     28.32999759	     47.21811948	      0.00000000	      0.00000000	     14.56868740	    -17.59887975	     -4.92326381	     80.89047279	     47.56006428	      0.00000000	      0.00000000
